<?xml version="1.0" encoding="utf-8"?>
<!-- Generator: Adobe Illustrator 21.0.2, SVG Export Plug-In . SVG Version: 6.00 Build 0)  -->
<!DOCTYPE svg PUBLIC "-//W3C//DTD SVG 1.1//EN" "http://www.w3.org/Graphics/SVG/1.1/DTD/svg11.dtd">
<svg version="1.1" id="Layer_4" xmlns="http://www.w3.org/2000/svg" xmlns:xlink="http://www.w3.org/1999/xlink" x="0px" y="0px"
	 viewBox="0 0 583.3 378" style="enable-background:new 0 0 583.3 378;" xml:space="preserve">
<g>
	<path d="M353.5,97.9l-26.7,11.7c-0.3,0.1-0.5,0.5-0.3,0.9l0.7,1.7l-13.7,5.5c-2.4,0.9-3.5,3.6-2.5,6l7.1,17.6l65-26.1l-7.1-17.6
		c-0.9-2.4-3.6-3.5-6-2.5l-14.6,5.9l-1.1-2.5C354.2,97.9,353.8,97.8,353.5,97.9z"/>
	<polygon points="371.5,127 395.7,122.4 398.2,146.9 401.3,122.5 425.3,127.8 403,117.3 430,75.8 398.6,113.9 382.2,95.6 
		394.1,117.1 	"/>
	<path d="M281.6,219.7c3.1,3.5,3.9,17.7,11.6,18.5c7.7,0.8,20.5-22.5,15.5-24.8c-2.2-1-10.2,16.7-12.5,16.7
		c-5.9-0.2-2.6-17-11.6-19.7c-4.4-1.1-14.1,12.2-17.1,16.5c-0.3,0.4-1,0.3-1-0.3c-0.4-3.1-2.1-9.7-8.7-8.9c-2.9,0.4-1,4-6.5,8
		c-4,2.9-16.3,24.5-18.8,22c-2.4-2.5,0.9-12.5-0.6-19.2c-0.7-3.1-2.3-3.4-5-3.4c-6.4,0-25.3,32.1-25.3,32.1c-1.4-2-1.1-4-2-14.6
		s-10.5-6.2-14.8-1.9c-4.4,4.4-11.9,19.3-11.9,19.3c-0.1-16.5,15.3-43.5,10.9-59c-1-3.5-4.5-7.5-7.8-1.8s-8.3,40.5-9.4,48.3
		c-0.7,4.9-9.1,13.2-15.1,18.7c1.9-5.9,1.4-11-3.7-15.6c-7.9-7.2-43.5,5.7-45.9,1.4c-7-12.3,42.1-43.2,44.2-44.3
		c3-1.6,18.7-10.8,18.7-10.8c14.3-7.1,17.3-8.2,25.9-21.3c13.4-20.6,5.4-54.3,35.7-58.3l2.5,4.3l92-23.1l4,7.7l7.1-3.1l1.1,2.4
		l15.2-6.8l-1.1-2.4l7.5-3.3l-11.8-21.5c0,0-61.5-2.1-121,37.7l2.4,4.2c-16.6,2.8-23,13.7-27.2,31.4c-5.2,21.5-9.4,35-29.8,46.2
		c-7.7,4.2-19.8,11.4-22.9,12.7c-4.4,1.7-24.3,9.3-32.8,17.6c-7.8,7.6-21.5,23.2-16,32.9c4.5,8,41.1-1.4,45.9,5.6
		c9.5,14.1-36.9,40.7-34.1,44.9c5.8,8.8,30.4-16.1,39-27.9c6.1-4.5,16.6-15.4,18-14.9c2.2,0.7-0.9,17.2,2.8,16.2
		c3.8-1,18.6-34,22.6-32.7c3.3,1,3.3,22.1,9.9,20.7c5.8-1.3,23-32.1,24.6-31.5s-0.3,20.6,3.9,23c9.1,5.1,26.7-31.1,29.5-30.7
		c2.8,1.5-7.6,16.6-1,22.5C259.8,252.2,278.5,216.2,281.6,219.7z"/>
	<ellipse transform="matrix(0.8368 -0.5475 0.5475 0.8368 -74.0663 159.0629)" cx="229.8" cy="203.8" rx="3.9" ry="5"/>
	<path d="M350.5,203.7c1.4-1.9,0-9.4-1.4-7.9c-2.3,2.4-15.9,23.4-22.4,26.2c-5.8,2.6-7-0.8-6-3.1c1.5-3.4,16-20.9,17.2-22.6
		s-0.6-5.3-3.1-5.8s-12.3,3.6-17,9.9c-3.7,5-4.8,12.3-4.6,17.2c0.1,1.1-1.3,0.2-0.7,3.4c0.5,2.7,1.8,1.4,2.1,1.9
		c2.3,3.6,7.3,6.9,14.1,4.9C338.7,224.8,349.1,205.7,350.5,203.7z M324.1,201.2c2.7-2.9,6.5-5.1,7.6-4.4s-9.6,13.9-10.6,13.4
		S321.4,204.2,324.1,201.2z"/>
	<path d="M487.7,151.5c-2,0.5-12.4,16.9-14.6,17.6s4.9-13.5,1.4-18.1c-1.6-2.1-3.9-3.6-9.9-2.4s-14.9,21-15.9,18.4s0.4-7.1-0.9-9.1
		s-3.1-4.5-5-3.6s-18.9,33.9-23,32.5s2.5-53.8,1.4-56.1c-1.9-4-6.6-1-9.1,2.1c-3.9,4.9-15.8,74-26.6,72.5c-10.4-1.4,5.3-68,5.1-70.9
		s-4.5-5.6-7.4-5.6s-10.1,4.7-12.9,6.5c-4.8,3.2-14.2,15.4-15.3,17.8c-0.9,2,0.6,6,1.8,6.9s5.6,1.2,6.5-1.3c1.2-3.1-1.2-4.3-0.1-6.6
		s13.6-18.4,17-15.8s-10,36.9-9.1,50.6c0.5,8.3,1.1,21.8,15,24.6c11.5,2.3,21.6-45.9,22-45.9s2.4,20,4.8,23.6s4.9,4,7.9,3.8
		s17.8-23.9,19.8-25.6s1.2,17.2,0,20.6c-1.2,3.5-9.4,22.1-9.5,32.4c0,5,1.6,11.6,8.9,13.4c7.4-3.1,8.3-44.5,9.5-46s3,0.3,6.3,0
		s9.2-3.6,13.3-7.2c4.9-4.4,18.3-20.8,19.3-23.3C489.3,154.8,489.7,151,487.7,151.5z M437.1,225.9c-0.8,1.6-1.5-8.7-1.1-12.2
		c0.6-5.8,2.3-15.1,3.8-15.1C441.6,198.5,437.9,224.3,437.1,225.9z M466.5,167.1c-0.6,1.9-3.9,7.4-5.3,8.9s-4.5,1.2-6,1.5
		c-5.6,1.3-4.9,5.9-6,3.9s6.4-15.9,7.4-18.1s7.4-8.4,9.6-7.6S467.3,164.5,466.5,167.1z"/>
	<path d="M294,251.4c-2.7-1.3-5.8-1.4-9.3-0.4l-5,1.4l-1.1,0.3l6,21l1.1-0.3l5.1-1.5c3.5-1,6-2.8,7.6-5.3s1.9-5.4,1-8.6
		C298.5,254.9,296.7,252.7,294,251.4z M296.6,265.8c-1.3,2-3.3,3.5-6.2,4.3l-4,1.2l-4.9-17.2l3.9-1.1c2.9-0.8,5.5-0.7,7.7,0.3
		c2.2,1.1,3.6,2.9,4.4,5.5C298.1,261.4,297.8,263.7,296.6,265.8z"/>
	<polygon points="316.7,262.5 307.3,265.2 305,257.5 314.1,254.8 313.9,253.9 313.6,253 304.5,255.6 302.3,248 311.7,245.3 
		311.4,244.4 311.2,243.4 299.7,246.7 305.7,267.7 317.2,264.4 316.9,263.4 	"/>
	<polygon points="325.3,241.4 325.1,240.5 324.8,239.5 313.1,242.9 313.3,243.8 313.6,244.8 318.4,243.4 323.9,262.5 325,262.2 
		326,261.9 320.5,242.8 	"/>
	<path d="M335.5,236.4l-1.1,0.3l-3,23.6l1.1-0.3l1.1-0.3l0.9-7.9l9.8-2.8l5,6.2l1.2-0.3l1.2-0.3l-15-18.4L335.5,236.4z M334.8,249.6
		l1.3-11l7,8.6L334.8,249.6z"/>
	<polygon points="349.2,232.5 348.1,232.8 354.1,253.8 355.2,253.5 356.3,253.2 350.2,232.2 	"/>
	<polygon points="371,246.9 362.3,249.4 356.8,230.3 355.8,230.6 354.7,230.9 360.7,251.9 371.5,248.8 371.2,247.8 	"/>
	<polygon points="368.7,226.9 367.6,227.2 373.7,248.2 374.7,247.9 375.8,247.6 369.7,226.6 	"/>
	<polygon points="389.7,220.9 388.6,221.2 393.6,238.5 376.9,224.6 375.4,225 374,225.4 380,246.4 381.1,246.1 382.1,245.7 
		376.9,227.3 394.6,242.2 395.7,241.9 396.7,241.6 390.7,220.6 	"/>
	<path d="M405.4,228.6l0.5,1.9l11.7-3.4c0,1.5-0.4,2.9-1.1,4.3c-1.2,2.2-3,3.7-5.5,4.4c-2.6,0.8-5.1,0.5-7.4-0.7
		c-2.3-1.2-3.8-3.1-4.5-5.6c-0.7-2.5-0.4-4.9,0.9-7.2c1.3-2.3,3.3-3.8,5.9-4.5c1.4-0.4,2.9-0.4,4.5-0.1c1.6,0.4,2.9,1,3.9,2l2.5-0.7
		c-1.3-1.5-3-2.5-5.1-3.1c-2.2-0.6-4.3-0.6-6.3,0c-3.2,0.9-5.6,2.7-7.2,5.5c-1.6,2.7-2,5.6-1.1,8.7c0.9,3,2.7,5.3,5.5,6.8
		c2.8,1.5,5.8,1.7,9,0.8c3.1-0.9,5.4-2.7,6.9-5.4c1.4-2.4,1.8-5,1.2-7.8L405.4,228.6z"/>
</g>
</svg>
